<?xml version="1.0" standalone="no"?>
<!DOCTYPE svg PUBLIC "-//W3C//DTD SVG 20010904//EN"
 "http://www.w3.org/TR/2001/REC-SVG-20010904/DTD/svg10.dtd">
<svg version="1.0" xmlns="http://www.w3.org/2000/svg"
 width="512.000000pt" height="512.000000pt" viewBox="0 0 512.000000 512.000000"
 preserveAspectRatio="xMidYMid meet">
<metadata>
Created by potrace 1.14, written by Peter Selinger 2001-2017
</metadata>
<g transform="translate(0.000000,512.000000) scale(0.100000,-0.100000)"
fill="#000000" stroke="none">
<path d="M1802 4924 c-11 -12 -11 -17 2 -29 22 -23 66 -20 66 5 0 13 -7 20
-20 20 -11 0 -20 5 -20 10 0 14 -13 12 -28 -6z"/>
<path d="M1530 4770 c0 -5 25 -10 55 -10 30 0 55 5 55 10 0 6 -25 10 -55 10
-30 0 -55 -4 -55 -10z"/>
<path d="M2560 4730 c0 -37 -2 -40 -19 -30 -35 18 -51 12 -51 -20 0 -23 5 -30
19 -30 30 0 51 -11 51 -26 0 -16 -55 -20 -65 -4 -3 6 -22 10 -41 10 -31 0 -34
-2 -34 -30 0 -25 4 -30 25 -30 14 0 25 -4 25 -10 0 -5 9 -10 20 -10 11 0 20
-4 20 -10 0 -5 7 -10 15 -10 13 0 15 -23 15 -145 0 -90 -4 -145 -10 -145 -5 0
-10 -6 -10 -14 0 -8 -7 -22 -16 -31 -15 -15 -15 -17 1 -35 14 -16 17 -30 12
-72 -4 -29 -11 -54 -17 -56 -5 -2 -10 -13 -10 -24 0 -24 -16 -40 -55 -56 -41
-17 -65 -69 -65 -141 0 -58 21 -101 49 -101 18 0 51 -38 51 -60 0 -11 -4 -20
-9 -20 -5 0 -11 -17 -15 -39 -5 -31 -12 -41 -36 -51 -16 -7 -32 -21 -35 -31
-4 -10 -11 -19 -16 -19 -5 0 -9 -6 -9 -13 0 -7 -9 -18 -20 -25 -11 -7 -20 -19
-20 -27 0 -8 -7 -15 -15 -15 -8 0 -15 -9 -15 -20 0 -11 -7 -20 -15 -20 -8 0
-15 -4 -15 -10 0 -5 -7 -10 -15 -10 -9 0 -24 -8 -34 -17 -23 -23 -34 -53 -19
-53 9 0 9 -3 0 -12 -7 -7 -12 -22 -12 -35 0 -19 5 -23 29 -23 37 0 44 -18 35
-97 -4 -44 -3 -68 6 -78 17 -20 30 -10 30 24 0 16 7 42 15 57 8 16 15 23 15
17 0 -7 5 -13 10 -13 6 0 10 6 10 13 0 20 50 37 107 37 29 0 53 5 53 10 0 6
23 10 50 10 38 0 50 -4 50 -15 0 -8 -4 -15 -10 -15 -15 0 -12 -99 3 -113 7 -7
21 -16 31 -22 26 -15 21 -29 -13 -38 -17 -4 -31 -14 -31 -22 0 -8 -4 -15 -10
-15 -5 0 -10 -9 -10 -20 0 -24 25 -26 46 -5 17 16 44 10 44 -11 0 -8 -9 -14
-21 -14 -15 0 -19 -4 -15 -16 3 -9 6 -18 6 -20 0 -2 7 -4 15 -4 11 0 15 -12
15 -44 0 -30 5 -46 15 -50 8 -3 15 -11 14 -18 0 -10 -2 -10 -6 0 -2 6 -13 12
-23 12 -29 0 -50 11 -50 26 0 17 -22 18 -38 2 -9 -9 -12 -8 -12 5 0 10 -8 17
-20 17 -11 0 -20 -7 -20 -15 0 -12 -13 -15 -60 -15 -38 0 -60 -4 -60 -11 0 -8
-5 -7 -15 1 -12 10 -13 15 -4 21 7 4 9 17 5 33 -8 32 -45 36 -63 7 -7 -11 -26
-22 -43 -26 -17 -4 -34 -14 -38 -23 -8 -21 -149 -162 -162 -162 -5 0 -12 -11
-16 -25 -3 -14 -12 -25 -20 -25 -8 0 -14 -4 -14 -10 0 -5 -11 -10 -24 -10 -13
0 -26 -3 -28 -7 -3 -8 -47 -30 -105 -55 -18 -7 -33 -16 -33 -20 0 -5 -6 -8
-14 -8 -18 0 -76 -32 -76 -42 0 -5 -7 -8 -15 -8 -8 0 -15 -4 -15 -10 0 -5 -6
-10 -14 -10 -8 0 -24 -11 -37 -25 -13 -13 -33 -25 -44 -25 -12 0 -38 -16 -58
-35 -20 -19 -42 -35 -47 -35 -6 0 -10 -4 -10 -10 0 -5 -9 -10 -20 -10 -11 0
-20 -7 -20 -15 0 -8 -6 -15 -12 -15 -7 0 -26 -16 -43 -35 -16 -19 -36 -35 -43
-35 -15 0 -42 -24 -42 -38 0 -5 -16 -20 -35 -33 -34 -24 -37 -27 -39 -51 -1
-17 -21 -38 -35 -38 -6 0 -11 -11 -11 -25 0 -14 -5 -25 -11 -25 -17 0 -39 -27
-39 -49 0 -12 -3 -21 -8 -21 -4 0 -14 -15 -21 -32 -8 -18 -21 -39 -28 -46 -7
-7 -13 -20 -13 -28 0 -8 -4 -14 -10 -14 -5 0 -10 -9 -10 -19 0 -11 -5 -21 -10
-23 -6 -2 -13 -33 -17 -71 -3 -37 -10 -67 -14 -67 -5 0 -9 -7 -9 -15 0 -8 -4
-15 -10 -15 -5 0 -10 -10 -10 -23 0 -13 -4 -27 -9 -32 -5 -6 -11 -21 -13 -35
-2 -16 -10 -26 -23 -28 -11 -1 -29 -16 -40 -32 -11 -17 -23 -30 -27 -30 -15 0
-48 -45 -48 -65 0 -23 -32 -55 -55 -55 -8 0 -15 -6 -15 -13 0 -22 -35 -56 -69
-68 -17 -6 -31 -17 -31 -25 0 -8 -6 -14 -12 -14 -15 -1 -108 -93 -108 -107 0
-20 234 -283 252 -283 3 0 11 14 17 30 7 22 18 32 41 36 21 5 32 14 36 30 8
31 34 31 34 1 0 -19 -10 -28 -45 -43 -31 -12 -48 -26 -51 -41 -4 -13 -11 -23
-17 -23 -6 0 0 -11 13 -26 18 -18 31 -23 49 -19 20 5 23 3 18 -14 -4 -15 6
-30 35 -56 41 -36 58 -43 58 -25 0 6 8 10 18 9 10 0 12 -3 5 -6 -23 -9 -14
-38 17 -56 l30 -18 0 70 c0 38 3 76 6 85 7 17 54 22 54 6 0 -5 9 -10 20 -10
21 0 28 -24 10 -35 -5 -3 -10 -45 -10 -91 0 -77 2 -88 22 -105 13 -10 27 -18
32 -19 5 0 17 -7 27 -16 17 -15 20 -15 36 2 17 17 18 17 21 -13 3 -26 12 -35
61 -62 89 -47 89 -48 93 77 2 59 2 113 0 120 -5 14 -38 16 -47 2 -3 -5 -24
-10 -46 -10 -21 0 -39 -4 -39 -10 0 -5 -16 -10 -35 -10 -30 0 -35 -3 -35 -24
0 -13 -7 -26 -15 -30 -17 -6 -21 9 -5 19 14 9 12 55 -2 55 -9 0 -10 2 -2 8 7
4 13 51 15 124 3 82 8 121 18 130 11 11 13 8 7 -15 -4 -16 -4 -37 -1 -48 5
-16 9 -17 26 -6 21 13 26 62 7 70 -8 3 -6 6 5 6 13 1 17 -7 17 -34 0 -19 3
-35 6 -35 18 0 34 34 34 74 0 45 0 46 33 46 18 0 38 5 44 11 8 8 15 8 25 -1
11 -10 12 -64 5 -289 -7 -259 -7 -276 10 -289 17 -12 19 -5 30 120 6 73 12
188 12 255 1 137 9 153 62 126 l29 -14 0 -154 c0 -92 4 -156 10 -160 6 -3 10
-24 10 -46 0 -21 -4 -39 -10 -39 -6 0 -10 -29 -10 -68 0 -73 11 -93 58 -105
l22 -5 0 164 0 164 25 0 c14 0 25 5 25 10 0 6 30 10 70 10 40 0 70 4 70 10 0
6 11 10 25 10 24 0 35 -15 15 -22 -5 -2 -10 -88 -10 -213 -1 -194 0 -210 17
-216 44 -18 43 -22 43 257 0 251 1 267 20 291 16 21 20 41 20 104 0 76 1 79
24 79 13 0 29 7 36 15 19 23 4 45 -31 45 l-32 0 6 85 6 85 -43 0 c-35 0 -45 4
-49 19 -6 25 25 32 177 38 120 4 146 12 146 47 0 13 -21 14 -157 9 -87 -3
-166 -10 -175 -14 -9 -5 -35 -9 -57 -9 -23 0 -41 -4 -41 -10 0 -6 -30 -10 -70
-10 -40 0 -70 -4 -70 -10 0 -6 -27 -10 -60 -10 -36 0 -60 -4 -60 -11 0 -7 -11
-8 -30 -4 -22 5 -33 2 -47 -14 -13 -15 -19 -18 -26 -8 -7 9 -10 9 -14 0 -2 -7
-20 -13 -39 -13 -23 0 -34 -5 -34 -15 0 -23 48 -30 86 -11 19 9 57 16 84 16
28 0 50 5 50 10 0 6 26 10 59 10 33 0 61 4 63 8 2 5 41 12 88 15 77 6 83 5 59
-8 -30 -16 -44 -42 -26 -48 7 -2 -26 -9 -72 -16 -100 -15 -125 -25 -140 -58
-8 -18 -17 -24 -31 -20 -10 3 -27 -1 -37 -9 -27 -20 -42 -17 -49 11 -6 24 -9
25 -58 19 -28 -4 -59 -11 -68 -15 -9 -5 -30 -9 -47 -9 -17 0 -31 -4 -31 -10 0
-5 -11 -10 -25 -10 -14 0 -25 -3 -25 -7 0 -10 -58 -43 -75 -43 -7 0 -16 -6
-18 -12 -3 -7 -6 17 -6 54 -1 37 -6 70 -11 73 -6 3 -10 1 -10 -4 0 -6 -10 -11
-23 -11 -23 0 -47 -17 -47 -32 0 -4 5 -8 11 -8 21 0 39 -29 39 -64 l0 -36 -60
0 -60 0 0 31 c0 25 3 30 16 25 21 -8 44 11 44 35 0 15 -8 19 -32 20 -21 1 -26
3 -14 6 11 3 26 11 34 19 7 8 21 14 31 14 9 0 27 9 39 20 12 12 22 17 22 12 0
-5 21 1 48 14 26 13 61 24 79 24 23 0 33 6 38 20 7 23 21 26 28 8 3 -10 9 -10
26 -1 11 7 32 13 47 13 26 0 54 20 54 39 0 6 5 11 10 11 6 0 10 -4 10 -10 0
-6 28 -10 63 -10 51 0 65 4 77 20 12 17 26 20 87 20 60 0 77 4 93 20 19 19 22
20 52 4 33 -17 62 -13 126 19 18 8 28 8 42 -1 23 -14 80 -16 80 -3 0 4 51 9
113 10 63 1 113 6 115 11 6 16 72 12 88 -5 14 -13 12 -15 -16 -15 -34 0 -60
-19 -60 -44 0 -20 60 -23 60 -3 1 6 9 2 20 -11 11 -13 16 -30 13 -39 -5 -14
-8 -13 -14 5 -11 29 -35 28 -63 -3 -22 -23 -25 -24 -39 -10 -21 20 -152 21
-173 1 -29 -29 -17 -46 31 -46 25 0 45 5 45 11 0 11 75 8 87 -4 3 -4 43 -8 87
-8 45 -1 72 -4 62 -6 -33 -9 -45 -27 -31 -46 14 -20 38 -22 67 -6 14 8 23 8
31 0 14 -14 47 -14 47 -1 0 6 5 10 11 10 14 0 39 -25 39 -39 0 -6 14 -11 30
-11 28 0 30 3 30 35 0 19 -4 35 -10 35 -5 0 -10 16 -10 35 0 24 5 35 15 35 9
0 15 -9 15 -24 0 -13 6 -27 13 -30 10 -5 10 -7 0 -12 -15 -7 -17 -80 -3 -89 6
-4 5 -12 -4 -21 -20 -19 -34 -18 -48 6 -16 26 -36 25 -59 -2 -11 -11 -19 -16
-19 -9 0 8 -22 11 -77 9 -65 -3 -78 -6 -81 -20 -3 -16 8 -18 133 -18 97 0 140
-4 149 -13 11 -10 11 -15 0 -25 -18 -16 -24 -15 -45 9 -16 19 -20 20 -34 6 -8
-9 -15 -25 -15 -36 0 -23 -26 -29 -32 -9 -6 17 -38 -14 -38 -36 0 -13 13 -16
65 -16 63 0 65 1 65 25 0 16 6 25 15 25 10 0 15 -10 15 -29 0 -17 4 -32 9 -35
5 -3 50 -7 100 -8 72 -2 94 1 101 12 6 8 8 21 5 27 -3 9 9 13 40 13 25 0 45
-4 45 -10 0 -5 12 -10 28 -11 15 -1 38 -5 52 -9 14 -5 -16 -6 -69 -2 -88 5
-93 4 -89 -14 2 -13 13 -20 38 -22 31 -3 49 -15 50 -34 0 -3 -9 -4 -20 -1 -11
3 -20 9 -20 14 0 5 -7 9 -15 9 -8 0 -15 -4 -15 -10 0 -5 -22 -10 -50 -10 -27
0 -50 5 -50 10 0 15 -117 13 -124 -2 -5 -11 -7 -11 -12 0 -4 8 -34 12 -99 12
l-93 0 0 -172 c0 -118 -3 -173 -11 -176 -14 -5 -15 -42 -1 -42 6 0 10 -20 10
-45 0 -42 2 -45 28 -46 23 -2 24 -2 5 -6 -14 -3 -25 -14 -29 -29 -6 -25 -29
-33 -36 -12 -7 19 -60 0 -56 -20 3 -13 14 -17 46 -17 32 0 42 -4 42 -16 0 -20
-20 -29 -61 -29 -16 0 -29 -4 -29 -9 0 -16 30 -33 49 -28 10 2 25 1 32 -4 12
-8 11 -11 -1 -19 -8 -5 -24 -10 -34 -10 -14 0 -17 -3 -10 -10 7 -7 62 -10 145
-8 130 3 134 4 137 26 3 17 -2 22 -17 22 -12 0 -21 5 -21 11 0 6 7 8 16 5 9
-3 40 -9 70 -12 44 -6 54 -10 54 -25 0 -12 7 -19 20 -19 16 0 20 7 20 30 0 17
5 30 10 30 6 0 10 47 10 122 0 67 3 118 7 115 3 -4 6 -66 5 -139 -1 -94 2
-135 11 -140 20 -13 86 -8 196 15 104 22 138 42 84 50 -16 2 -6 5 25 6 28 0
52 5 52 10 0 4 37 11 83 14 107 7 222 46 260 90 23 27 29 29 37 17 8 -13 26
-7 114 37 79 39 104 56 100 68 -4 8 -10 15 -14 15 -5 0 -12 9 -15 20 -4 12
-15 20 -30 20 -12 0 -25 7 -29 15 -3 8 -15 15 -26 15 -16 0 -20 6 -20 35 0 19
-4 35 -9 35 -5 0 -11 9 -14 20 -4 15 -14 20 -36 20 -24 0 -34 6 -43 25 -6 14
-15 25 -20 25 -17 0 -7 20 27 53 19 19 35 41 35 50 0 8 6 18 13 20 10 4 10 6
0 6 -8 1 -13 15 -13 34 0 23 -9 43 -33 68 -43 45 -49 63 -41 116 6 41 8 43 41
43 27 0 34 4 31 17 -2 10 -18 25 -37 34 -32 15 -33 16 -11 22 20 5 21 8 10 21
-10 13 -10 16 4 16 18 0 57 -20 67 -34 4 -4 36 -10 73 -13 48 -4 66 -10 66
-20 0 -17 24 -43 39 -43 6 0 11 -7 11 -15 0 -12 -4 -14 -19 -5 -21 11 -22 10
-47 -38 -7 -15 -14 -21 -14 -14 0 16 -28 15 -46 -2 -26 -27 -17 -46 21 -46 33
0 35 -2 35 -34 0 -19 6 -37 13 -39 6 -3 2 -6 -10 -6 -12 -1 -25 3 -28 9 -7 11
-48 14 -58 4 -3 -3 -1 -17 5 -30 9 -18 19 -24 45 -24 18 0 33 -4 33 -9 0 -5
12 -12 28 -14 15 -2 -4 -5 -42 -6 -58 -1 -67 -3 -62 -17 3 -9 6 -18 6 -20 0
-2 16 -4 36 -4 l35 0 -2 -115 c-2 -76 1 -119 9 -127 8 -8 14 -4 22 17 6 15 10
37 9 49 -3 36 1 56 10 56 6 0 7 -24 4 -55 -5 -47 -3 -56 12 -62 12 -4 22 -1
28 9 9 14 12 14 29 -1 10 -8 18 -23 18 -33 0 -10 4 -18 8 -18 15 0 32 24 32
47 0 18 6 23 24 23 40 0 52 74 16 100 -20 15 -28 60 -10 60 14 0 13 43 -2 58
-9 9 -6 12 15 12 15 0 27 -4 27 -10 0 -5 -4 -10 -10 -10 -5 0 -10 -18 -10 -41
0 -71 55 -95 62 -27 2 23 10 36 25 43 13 5 23 19 24 30 0 11 3 14 6 8 2 -7 15
-13 28 -13 20 0 25 -7 31 -35 4 -25 12 -35 24 -35 23 0 29 16 22 57 -5 39 3
42 28 11 l19 -23 50 50 c28 27 51 53 51 58 0 4 9 18 21 30 11 12 18 29 16 38
-3 12 4 19 24 23 17 3 29 12 29 21 0 8 4 15 10 15 5 0 21 10 35 22 20 17 25
31 25 70 0 26 -4 48 -10 48 -5 0 -10 9 -10 21 0 12 -12 33 -27 48 -16 15 -35
36 -44 47 -35 41 -102 96 -130 106 -16 5 -29 14 -29 18 0 4 -11 11 -25 14 -14
4 -25 11 -25 16 0 6 -5 10 -11 10 -19 0 -39 28 -39 55 0 15 -12 39 -30 58 -17
18 -33 40 -35 49 -3 9 -16 18 -28 20 -17 2 -23 11 -25 38 -2 19 -8 39 -13 44
-5 6 -9 23 -9 38 0 15 -4 28 -10 28 -5 0 -10 11 -10 25 0 14 -11 43 -25 65
-14 22 -25 44 -25 50 0 6 -11 23 -25 38 -14 15 -25 32 -25 39 0 7 -4 13 -10
13 -5 0 -10 8 -10 18 0 9 -16 34 -35 55 -19 21 -35 43 -35 48 0 14 -26 39 -39
39 -6 0 -11 8 -12 18 0 9 -20 33 -44 52 -24 19 -44 42 -44 51 -1 9 -12 22 -26
29 -14 7 -25 19 -25 27 0 7 -9 13 -19 13 -11 0 -23 9 -26 20 -4 13 -18 23 -36
27 -16 3 -29 9 -29 14 0 5 -6 9 -13 9 -7 0 -19 9 -27 20 -8 11 -20 20 -27 20
-7 0 -23 11 -37 25 -14 14 -30 25 -36 25 -5 0 -10 4 -10 9 0 5 -15 12 -34 15
-19 4 -36 13 -39 20 -7 17 -63 46 -89 46 -10 0 -18 7 -18 15 0 11 -11 15 -36
15 -23 0 -42 7 -52 20 -12 13 -33 20 -66 23 -28 2 -52 9 -54 15 -2 7 -8 12
-14 12 -27 0 -50 52 -28 65 18 11 11 25 -13 25 -26 0 -97 62 -97 85 0 8 -4 15
-10 15 -5 0 -10 23 -10 50 0 28 -4 50 -10 50 -6 0 -10 52 -10 135 0 83 4 135
10 135 6 0 10 16 10 36 0 38 13 57 46 68 41 13 61 101 24 101 -8 0 -31 12 -50
27 -19 14 -46 28 -60 30 -17 2 -26 10 -28 26 -2 12 -8 22 -13 22 -5 0 -9 9 -9
20 0 11 -5 20 -11 20 -15 0 -38 30 -39 49 0 17 -38 51 -57 51 -7 0 -13 9 -13
20 0 11 -4 20 -10 20 -5 0 -10 20 -10 45 0 38 3 45 19 45 22 0 59 32 79 67 15
28 16 117 1 145 -6 11 -26 35 -45 53 -19 18 -34 43 -34 54 0 12 -4 21 -10 21
-6 0 -10 38 -10 93 l0 93 30 11 c35 13 41 47 10 63 -18 10 -20 21 -20 110 0
100 0 100 25 100 14 0 25 -4 25 -10 0 -5 7 -10 15 -10 8 0 15 -4 15 -10 0 -20
20 -9 26 14 8 31 -29 71 -74 81 -25 5 -32 12 -32 31 0 30 17 31 41 3 15 -18
21 -20 34 -9 18 15 20 61 3 78 -7 7 -28 12 -47 13 -20 0 -30 3 -23 6 7 2 12
22 12 44 0 37 -2 39 -30 39 -28 0 -30 -2 -30 -40z m-40 -805 c0 -8 -7 -20 -15
-27 -35 -29 -55 -53 -55 -65 0 -7 -4 -13 -10 -13 -15 0 -12 47 5 64 8 8 15 18
15 23 0 8 35 29 53 32 4 0 7 -6 7 -14z m77 -162 c-9 -9 -19 -14 -22 -11 -3 3
2 13 11 22 9 9 19 14 22 11 3 -3 -2 -13 -11 -22z m-77 -143 c0 -11 -4 -20 -9
-20 -5 0 -7 9 -4 20 3 11 7 20 9 20 2 0 4 -9 4 -20z m-12 -107 c-10 -2 -18 -9
-18 -14 0 -5 -11 -9 -25 -9 -22 0 -24 2 -13 15 7 8 27 14 43 13 17 0 22 -2 13
-5z m49 -49 c-3 -3 -12 -4 -19 -1 -8 3 -5 6 6 6 11 1 17 -2 13 -5z m-89 -21
c-16 -2 -28 -9 -28 -14 0 -5 -12 -9 -27 -9 l-28 0 25 14 c14 8 39 14 55 14 30
-1 30 -1 3 -5z m88 -63 c24 0 34 -5 34 -15 0 -17 -16 -20 -25 -5 -3 6 -26 10
-51 10 -24 0 -44 -4 -44 -10 0 -6 -28 -9 -67 -8 -39 1 -53 3 -33 5 19 3 39 9
45 14 5 5 28 9 52 9 27 0 43 5 44 13 0 10 2 10 6 0 2 -7 20 -13 39 -13z m-42
-114 c-3 -9 -12 -16 -18 -16 -14 0 -15 28 -2 49 7 11 10 11 17 -2 5 -8 6 -22
3 -31z m-114 4 c0 -5 9 -10 20 -10 11 0 20 -7 20 -15 0 -9 -9 -15 -23 -15 -13
0 -27 -4 -32 -9 -6 -5 -32 -12 -59 -16 -55 -8 -55 -8 -1 52 20 22 75 32 75 13z
m207 -16 c-3 -3 -12 -4 -19 -1 -8 3 -5 6 6 6 11 1 17 -2 13 -5z m155 -23 c-5
-3 -12 -17 -15 -31 -4 -24 -4 -24 -6 3 -1 28 21 64 28 45 2 -6 -1 -13 -7 -17z
m-72 -76 c10 -12 10 -15 -4 -15 -9 0 -16 7 -16 15 0 8 2 15 4 15 2 0 9 -7 16
-15z m58 -47 c-6 -18 -28 -21 -28 -4 0 9 7 16 16 16 9 0 14 -5 12 -12z m-10
-122 c-17 -33 -18 -32 -18 9 0 32 2 36 15 25 11 -9 12 -17 3 -34z m9 -128 c-3
-8 -6 -5 -6 6 -1 11 2 17 5 13 3 -3 4 -12 1 -19z m-437 -79 c0 -10 -4 -19 -10
-19 -5 0 -10 12 -10 26 0 14 4 23 10 19 6 -3 10 -15 10 -26z m225 -59 c4 -6
-5 -10 -19 -10 -14 0 -26 -4 -26 -10 0 -5 -11 -10 -25 -10 -14 0 -25 5 -25 10
0 6 -9 10 -20 10 -11 0 -20 -4 -20 -10 0 -5 -6 -10 -14 -10 -8 0 -16 -4 -18
-9 -4 -11 -188 -22 -188 -10 0 5 9 9 19 9 11 0 23 5 26 10 3 6 22 10 41 10 19
0 34 4 34 10 0 5 37 11 83 13 45 1 96 4 114 5 17 1 35 -2 38 -8z m178 -122
c12 -6 36 -11 52 -10 17 1 37 -3 45 -8 21 -13 -53 -13 -211 1 -148 14 -179 9
-179 -26 0 -18 7 -26 25 -31 46 -11 26 -23 -38 -22 -59 1 -127 -17 -127 -34 0
-5 45 -8 99 -8 91 0 100 -2 106 -20 6 -18 15 -20 86 -20 64 0 79 -3 79 -15 0
-10 11 -15 35 -15 19 0 35 -4 35 -10 0 -5 7 -10 15 -10 8 0 15 -7 15 -15 0
-11 -11 -15 -40 -15 -22 0 -40 -2 -40 -4 0 -2 -3 -11 -6 -20 -5 -13 2 -16 40
-16 42 0 46 -2 46 -25 0 -14 -4 -25 -9 -25 -5 0 -13 -10 -17 -22 -3 -12 -13
-29 -21 -36 -16 -16 -92 -20 -102 -5 -3 5 -17 17 -31 26 l-24 17 32 0 c17 0
32 -4 32 -10 0 -13 87 -13 95 0 8 13 -4 50 -16 50 -14 0 -39 26 -39 39 0 22
-68 12 -94 -14 -14 -14 -30 -25 -36 -25 -5 0 -10 -4 -10 -10 0 -5 -11 -10 -24
-10 -13 0 -29 -7 -36 -15 -7 -8 -20 -15 -29 -15 -10 0 -26 -8 -37 -19 -12 -10
-35 -22 -52 -26 -18 -3 -46 -20 -63 -37 -27 -27 -36 -30 -85 -29 -53 1 -54 0
-48 -23 5 -20 0 -27 -25 -40 -38 -20 -51 -20 -51 -1 0 8 -4 15 -10 15 -5 0
-10 7 -10 15 0 8 9 15 20 15 11 0 20 5 20 10 0 6 11 10 24 10 14 0 31 8 38 19
7 10 23 21 36 25 12 4 22 12 22 17 0 5 11 9 24 9 13 0 29 7 36 15 7 8 19 15
26 15 8 0 14 5 14 10 0 6 11 10 25 10 14 0 25 -4 25 -10 0 -5 5 -10 10 -10 6
0 10 9 10 20 0 11 5 20 10 20 6 0 10 7 10 15 0 9 9 15 25 15 14 0 25 5 25 10
0 6 20 10 45 10 25 0 45 5 45 10 0 6 7 10 15 10 19 0 19 14 -1 34 -20 20 -48
20 -68 1 -8 -8 -28 -15 -45 -15 -17 0 -31 -4 -31 -8 0 -4 -22 -16 -50 -27 -27
-11 -50 -23 -50 -27 0 -4 -9 -8 -19 -8 -11 0 -21 -3 -23 -7 -3 -9 -109 -63
-121 -63 -5 0 1 12 12 26 28 36 26 44 -9 44 -16 0 -30 -4 -30 -9 0 -5 -14 -14
-31 -20 -42 -15 -36 -44 11 -52 l35 -5 -42 -19 c-24 -11 -43 -23 -43 -27 0 -5
-5 -8 -10 -8 -7 0 -7 6 0 19 18 35 12 51 -20 51 -27 0 -80 -33 -80 -50 0 -10
48 -30 73 -31 19 0 19 -2 -5 -11 -16 -5 -28 -14 -28 -19 0 -5 -9 -9 -20 -9
-11 0 -20 -4 -20 -10 0 -5 -8 -10 -19 -10 -10 0 -27 -11 -37 -25 -10 -14 -24
-25 -31 -25 -7 0 -13 -4 -13 -10 0 -5 -9 -10 -20 -10 -16 0 -20 -7 -20 -30 0
-25 4 -30 25 -30 14 0 28 -7 31 -15 4 -8 17 -15 31 -15 25 0 24 -1 -13 -35
-37 -34 -64 -45 -64 -25 0 6 -10 10 -22 10 -12 0 -31 9 -42 19 -16 15 -39 20
-101 22 -121 4 -127 3 -123 -23 3 -21 9 -23 87 -28 55 -3 86 -9 89 -17 2 -7
10 -13 17 -13 7 0 16 6 19 13 5 10 7 10 12 0 3 -7 17 -13 30 -13 34 0 29 -22
-9 -40 -23 -11 -32 -22 -32 -40 0 -17 5 -24 15 -21 8 2 32 6 53 9 20 2 37 8
37 13 0 5 32 9 70 9 39 0 70 4 70 9 0 11 61 17 230 25 196 8 280 17 280 28 0
10 122 6 194 -7 26 -5 41 -4 46 5 6 10 15 10 43 -1 32 -11 34 -14 19 -28 -10
-10 -17 -12 -19 -5 -5 14 -418 8 -448 -6 -11 -5 -67 -12 -125 -14 -159 -8
-254 -17 -260 -25 -6 -9 -150 -30 -255 -37 -38 -3 -74 -10 -79 -15 -6 -5 -18
-9 -28 -9 -10 0 -18 -4 -18 -9 0 -4 -23 -11 -52 -14 -28 -4 -56 -11 -62 -17
-5 -5 -23 -10 -38 -10 -15 0 -28 -4 -28 -10 0 -5 -12 -10 -27 -10 -25 0 -23 3
19 24 25 13 67 27 92 30 25 4 46 11 46 17 0 5 13 9 29 9 17 0 32 4 35 9 4 5
29 12 57 16 54 8 70 25 51 56 -7 10 -12 30 -12 44 0 25 -13 31 -44 19 -9 -3
-16 -14 -17 -23 0 -11 -3 -9 -9 7 -9 22 -32 28 -93 24 -16 -1 -36 2 -45 7 -10
6 -23 6 -34 0 -33 -18 -19 10 17 33 19 13 35 31 35 41 0 10 7 20 15 23 8 3 17
14 20 25 4 10 15 19 26 19 10 0 19 5 19 10 0 13 72 85 94 93 20 8 22 57 2 57
-8 0 -16 -6 -19 -14 -3 -7 -22 -16 -41 -20 -22 -4 -36 -13 -36 -22 0 -8 -16
-30 -35 -48 -19 -19 -35 -30 -35 -25 0 5 -13 9 -30 9 -22 0 -28 4 -24 15 4 9
19 15 40 15 24 0 34 5 34 16 0 21 -25 44 -47 44 -20 0 -63 -42 -63 -60 0 -6
-4 -10 -9 -10 -5 0 -12 -8 -15 -17 -3 -10 -19 -27 -36 -38 -17 -11 -33 -28
-36 -38 -8 -25 -74 -92 -74 -75 0 7 9 20 20 28 11 8 20 23 20 33 0 9 7 20 15
23 8 4 15 10 15 15 0 9 9 20 68 84 12 13 22 27 22 30 0 9 80 85 90 85 5 0 10
4 10 9 0 5 13 14 30 19 18 7 32 20 36 36 4 17 14 26 32 28 21 2 28 11 37 43 8
33 14 39 32 37 14 -2 20 -8 16 -18 -4 -10 3 -14 26 -14 17 0 31 4 31 9 0 5 18
12 40 16 33 6 40 11 40 29 0 12 -5 27 -12 34 -9 9 -8 12 5 12 9 0 17 5 17 10
0 6 9 10 19 10 11 0 21 3 23 8 5 10 111 63 116 57 3 -3 0 -5 -6 -5 -7 0 -12
-9 -12 -20 0 -16 7 -20 30 -20 17 0 30 4 30 9 0 4 27 12 61 15 55 6 60 9 57
29 -2 16 -11 23 -32 25 -16 2 -33 -1 -39 -7 -6 -6 -22 -10 -37 -10 -20 1 -21
2 -5 6 11 3 25 9 30 13 6 5 33 16 60 25 28 9 60 21 72 27 17 8 26 8 38 -2 9
-7 15 -8 15 -2 0 6 41 13 94 17 51 4 100 11 107 16 21 13 257 11 282 -3z m-55
-100 c2 -4 28 -8 57 -8 38 0 54 -4 59 -15 4 -10 -1 -15 -14 -15 -11 0 -20 5
-20 10 0 6 -9 10 -20 10 -11 0 -20 -4 -20 -10 0 -5 -7 -10 -15 -10 -8 0 -15 5
-15 10 0 6 -11 10 -25 10 -14 0 -25 5 -25 10 0 14 -53 13 -67 -1 -9 -9 -16 -8
-27 4 -9 9 -16 18 -16 21 0 8 145 -6 148 -16z m171 -59 c-21 -13 -39 -11 -39
5 0 8 10 16 23 18 26 4 36 -10 16 -23z m101 -34 c7 -9 29 -15 54 -15 30 0 46
-6 56 -20 8 -11 20 -20 26 -20 6 0 17 -7 24 -15 25 -30 -27 -16 -58 15 -20 19
-41 30 -59 30 -42 0 -71 10 -77 26 -7 19 18 18 34 -1z m-90 -35 c0 -15 7 -20
28 -21 l27 -2 -27 -4 c-20 -3 -35 3 -53 21 l-26 26 26 0 c18 0 25 -5 25 -20z
m-1103 -6 c-3 -3 -12 -4 -19 -1 -8 3 -5 6 6 6 11 1 17 -2 13 -5z m1573 -34
c10 0 22 -4 25 -10 7 -11 0 -12 -32 -4 -13 4 -23 14 -22 23 0 10 2 11 6 4 2
-7 13 -13 23 -13z m-490 -41 c0 -7 8 -18 18 -25 15 -12 15 -13 -10 -14 -14 0
-32 -2 -40 -3 -7 -2 -10 -2 -5 0 4 3 7 16 7 29 0 15 6 24 15 24 8 0 15 -5 15
-11z m128 4 c-10 -2 -26 -2 -35 0 -10 3 -2 5 17 5 19 0 27 -2 18 -5z m476 -48
c8 -8 21 -15 29 -15 8 0 18 -7 21 -16 4 -10 2 -14 -6 -10 -7 3 -21 9 -30 12
-10 4 -18 10 -18 15 0 5 -6 9 -14 9 -8 0 -18 5 -21 10 -10 16 22 12 39 -5z
m-304 -10 c0 -19 -9 -19 -34 0 -19 14 -19 15 7 15 17 0 27 -5 27 -15z m-214
-45 c33 0 54 -10 54 -26 0 -8 -10 -14 -25 -14 -19 0 -25 -6 -26 -22 l-2 -23
-4 23 c-2 12 -9 22 -14 22 -5 0 -9 7 -9 15 0 8 -4 15 -10 15 -5 0 -10 8 -10
17 0 13 3 14 12 5 7 -7 22 -12 34 -12z m137 -7 c-7 -2 -21 -2 -30 0 -10 3 -4
5 12 5 17 0 24 -2 18 -5z m226 -18 c3 -17 2 -17 -13 -3 -19 20 -21 31 -3 26 6
-3 14 -13 16 -23z m277 -11 c20 -21 21 -24 5 -24 -15 0 -61 41 -61 55 0 10 33
-9 56 -31z m-956 -9 c0 -8 -9 -15 -20 -15 -11 0 -20 -4 -20 -10 0 -5 -4 -10
-10 -10 -5 0 -10 9 -10 19 0 11 -6 22 -12 24 -7 3 6 6 30 6 31 1 42 -3 42 -14z
m510 -37 c0 -4 -6 -8 -14 -8 -25 0 -46 12 -46 25 0 11 6 11 30 2 17 -6 30 -15
30 -19z m-648 -5 c10 -9 18 -22 18 -29 0 -7 9 -15 20 -19 10 -3 34 -21 53 -40
l33 -33 -30 -6 c-24 -5 -35 -1 -59 24 -16 16 -44 35 -63 42 -19 6 -34 16 -34
21 0 12 -21 30 -50 44 -22 10 -19 12 34 12 42 1 65 -4 78 -16z m320 -7 c12
-17 -40 -19 -57 -2 -8 8 -15 17 -15 20 0 10 65 -7 72 -18z m458 14 c12 -8 9
-10 -12 -10 -15 0 -30 5 -33 10 -8 13 25 13 45 0z m-240 -37 c22 -19 27 -43 8
-43 -7 0 -26 14 -42 30 -28 28 -28 30 -8 30 12 0 31 -8 42 -17z m624 2 c3 -8
2 -15 -3 -15 -5 0 -14 7 -21 15 -10 12 -10 15 3 15 8 0 17 -7 21 -15z m-957
-30 l28 6 -30 -14 c-32 -16 -64 -5 -74 24 -3 10 3 9 22 -4 17 -11 37 -15 54
-12z m893 -10 c0 -7 6 -16 13 -18 7 -3 5 -6 -5 -6 -10 -1 -18 5 -18 13 0 8 -7
16 -15 20 -8 3 -15 10 -15 16 0 8 6 8 20 0 11 -6 20 -17 20 -25z m-730 0 c0
-16 -6 -25 -15 -25 -15 0 -21 31 -8 43 13 14 23 6 23 -18z m-472 9 c34 -7 34
-34 1 -34 -10 0 -19 -4 -19 -8 0 -5 -16 -17 -35 -28 -19 -10 -35 -22 -35 -26
0 -5 -7 -8 -15 -8 -8 0 -15 -4 -15 -9 0 -5 -16 -15 -35 -21 -19 -6 -35 -16
-35 -21 0 -15 -23 -35 -48 -43 -12 -4 -22 -12 -22 -17 0 -5 -11 -9 -25 -9 -14
0 -25 -4 -25 -10 0 -5 -11 -10 -25 -10 -14 0 -25 5 -25 10 0 6 -21 10 -47 10
-45 0 -47 1 -23 13 16 8 26 23 28 40 3 21 9 27 28 27 23 0 88 40 106 65 5 6 8
5 8 -2 0 -7 9 -13 20 -13 13 0 20 7 20 20 0 31 40 70 72 70 15 0 28 -4 28 -10
0 -16 40 -51 50 -45 6 4 10 19 10 36 0 31 6 33 58 23z m822 -10 c0 -2 -7 -4
-15 -4 -8 0 -15 4 -15 10 0 5 7 7 15 4 8 -4 15 -8 15 -10z m120 -4 c0 -22 -25
-18 -34 6 -3 9 1 14 14 14 13 0 20 -7 20 -20z m-1290 0 c0 -5 9 -10 20 -10 11
0 20 -7 20 -15 0 -8 -6 -15 -14 -15 -7 0 -25 -11 -40 -25 -15 -14 -31 -25 -36
-25 -5 0 -14 -8 -19 -17 -9 -15 -10 -13 -11 14 0 17 -6 33 -12 36 -15 5 29 46
50 47 6 0 12 5 12 10 0 6 7 10 15 10 8 0 15 -4 15 -10z m1380 -6 c0 -14 -3
-14 -15 -4 -8 7 -15 14 -15 16 0 2 7 4 15 4 8 0 15 -7 15 -16z m304 -38 c15
-13 26 -29 26 -36 0 -7 11 -21 25 -32 14 -11 25 -27 25 -36 0 -10 -3 -13 -8
-6 -4 6 -22 19 -39 29 -33 19 -43 35 -22 35 6 0 5 6 -3 15 -27 29 -38 44 -38
50 0 10 9 5 34 -19z m-269 4 c3 -5 1 -10 -4 -10 -6 0 -11 5 -11 10 0 6 2 10 4
10 3 0 8 -4 11 -10z m-726 -20 c-7 -5 -19 -6 -26 -3 -11 5 -12 8 -2 13 7 5 19
6 26 3 11 -5 12 -8 2 -13z m365 4 c20 -8 21 -34 1 -34 -8 0 -15 4 -15 8 0 5
-10 14 -22 20 l-23 11 22 0 c12 1 28 -2 37 -5z m161 -20 c19 -14 19 -14 -3
-14 -12 0 -22 5 -22 10 0 6 -11 10 -25 10 -14 0 -25 4 -25 9 0 11 50 1 75 -15z
m-1755 5 c0 -19 -28 -39 -55 -39 -14 0 -37 -7 -50 -16 -15 -10 -25 -12 -25 -5
0 6 5 11 11 11 16 0 39 26 39 44 0 12 10 16 40 16 22 0 40 -5 40 -11z m2152
-1 c12 -7 28 -19 36 -25 11 -11 10 -13 -9 -13 -12 0 -30 10 -40 22 -28 32 -24
37 13 16z m-1159 -22 c8 -21 -14 -36 -49 -33 -25 2 -29 -2 -32 -24 -4 -31 -23
-39 -100 -39 -29 0 -62 -5 -73 -10 -21 -12 -26 -1 -7 18 7 7 40 12 79 12 76 0
94 12 87 60 -4 30 -4 30 43 30 31 0 49 -5 52 -14z m907 -2 c0 -14 -3 -14 -15
-4 -8 7 -15 14 -15 16 0 2 7 4 15 4 8 0 15 -7 15 -16z m-704 -31 c-10 -10 -19
5 -10 18 6 11 8 11 12 0 2 -7 1 -15 -2 -18z m71 5 c-3 -8 -6 -5 -6 6 -1 11 2
17 5 13 3 -3 4 -12 1 -19z m743 7 c0 -8 -4 -15 -9 -15 -5 0 -11 7 -15 15 -3 9
0 15 9 15 8 0 15 -7 15 -15z m-526 -10 c18 -14 17 -15 -22 -15 -54 0 -56 19
-2 29 3 0 14 -6 24 -14z m-124 -5 c0 -5 -7 -10 -15 -10 -8 0 -15 5 -15 10 0 6
7 10 15 10 8 0 15 -4 15 -10z m-205 -7 c-11 -3 -23 -10 -27 -17 -5 -7 -8 -5
-8 7 0 12 7 17 28 16 21 -1 22 -2 7 -6z m505 -8 c0 -8 -7 -15 -15 -15 -8 0
-15 7 -15 15 0 8 7 15 15 15 8 0 15 -7 15 -15z m100 6 c0 -6 15 -12 33 -14 22
-3 16 -4 -20 -5 -43 -2 -51 1 -47 13 7 16 34 21 34 6z m185 -41 c3 -5 -3 -10
-15 -10 -12 0 -18 5 -15 10 3 6 10 10 15 10 5 0 12 -4 15 -10z m285 1 c0 -5
-9 -7 -20 -4 -11 3 -20 7 -20 9 0 2 9 4 20 4 11 0 20 -4 20 -9z m-2490 -40
c-12 -24 -30 -36 -30 -21 0 13 22 39 33 40 4 0 3 -9 -3 -19z m1773 12 c-21 -8
-15 -44 7 -50 43 -11 17 -23 -51 -23 -72 0 -86 11 -43 34 10 6 26 19 34 28 8
10 26 17 40 17 14 0 19 -3 13 -6z m857 -74 c0 -30 -17 -22 -22 11 -4 24 -2 27
9 19 7 -7 13 -20 13 -30z m-2268 1 c-22 -21 -82 -28 -82 -10 0 18 -49 10 -63
-10 -11 -16 -16 -18 -20 -7 -8 22 31 38 101 43 36 2 68 6 70 9 3 3 8 3 10 0 3
-3 -4 -14 -16 -25z m-206 -6 c-9 -9 -19 -14 -22 -11 -3 2 3 12 12 21 9 9 19
15 21 12 3 -3 -2 -13 -11 -22z m1822 20 c12 -4 22 -13 22 -20 0 -16 -16 -19
-25 -4 -3 6 -34 10 -68 10 -44 0 -58 3 -47 10 17 11 83 13 118 4z m557 -4 c8
-13 -5 -13 -25 0 -13 8 -13 10 2 10 9 0 20 -4 23 -10z m-2478 -35 c-19 -18
-48 -20 -41 -2 5 15 48 35 52 25 2 -4 -3 -15 -11 -23z m2191 -7 c5 -27 -44
-24 -51 3 -5 17 -1 20 21 17 16 -2 28 -10 30 -20z m97 -7 c8 -14 -12 -23 -36
-16 -17 6 -19 9 -8 16 18 11 36 11 44 0z m-1055 -27 c0 -2 -14 -4 -31 -4 -16
0 -28 4 -25 9 5 8 56 3 56 -5z m1170 -5 c0 -5 12 -9 27 -9 33 0 113 -29 113
-41 0 -5 12 -10 28 -10 23 -2 24 -2 5 -6 -13 -2 -33 3 -45 11 -12 9 -33 16
-45 16 -13 0 -23 5 -23 10 0 6 -25 10 -55 10 -30 0 -55 2 -55 4 0 2 -2 11 -5
19 -5 10 1 13 25 9 16 -2 30 -8 30 -13z m-905 1 c3 -5 40 -10 81 -10 41 0 74
-4 74 -9 0 -5 8 -12 18 -14 9 -3 -7 -5 -35 -6 -30 0 -53 3 -53 9 0 6 -26 10
-59 10 -33 0 -63 -4 -66 -10 -8 -13 -185 -13 -185 -1 0 5 -10 12 -22 14 -13 2
10 5 50 6 42 0 72 -3 72 -9 0 -5 12 -10 26 -10 17 0 28 6 31 20 4 14 14 20 34
20 15 0 31 -4 34 -10z m-1466 -39 c-15 -5 -22 6 -14 19 6 9 10 9 16 -1 5 -8 4
-15 -2 -18z m894 17 c3 -10 9 -10 26 0 25 15 51 16 51 2 0 -5 26 -11 58 -11
31 -1 46 -3 32 -6 -65 -10 -71 -13 -68 -36 3 -20 9 -22 81 -25 l79 -3 -7 31
c-5 23 -3 30 9 30 9 0 16 -4 16 -10 0 -5 11 -10 25 -10 14 0 25 -4 25 -10 0
-5 9 -10 19 -10 11 0 23 -4 26 -10 9 -14 43 -12 48 3 3 9 9 9 28 0 13 -7 51
-16 84 -21 49 -8 26 -10 -127 -11 -118 -1 -188 -5 -188 -11 0 -6 -38 -10 -94
-10 -53 0 -98 -4 -101 -10 -4 -6 -53 -10 -116 -10 -60 0 -109 -4 -109 -9 0 -5
-63 -12 -140 -16 -77 -4 -143 -11 -146 -16 -3 -5 -21 -9 -40 -9 -19 0 -34 -4
-34 -10 0 -5 -25 -10 -55 -10 -30 0 -55 -4 -55 -10 0 -5 -10 -10 -22 -10 -13
0 -36 -7 -52 -15 -15 -8 -39 -15 -52 -15 -12 0 -26 -4 -29 -10 -3 -5 -17 -10
-31 -10 -13 0 -32 -4 -42 -9 -40 -19 -122 -41 -153 -40 -19 1 -26 3 -16 6 9 2
17 8 17 13 0 4 16 11 35 14 19 4 35 11 35 16 0 6 9 10 20 10 11 0 20 5 20 10
0 6 16 10 35 10 19 0 35 4 35 9 0 5 32 12 71 16 53 5 73 12 82 26 8 12 23 19
44 19 20 0 33 5 33 13 0 8 4 7 10 -3 7 -11 12 -12 18 -4 4 7 44 15 90 19 45 4
85 11 88 16 3 5 27 9 55 9 27 0 49 5 49 10 0 6 28 10 65 10 59 0 67 2 74 23 5
12 7 25 4 30 -6 11 -71 9 -78 -3 -3 -5 -37 -10 -75 -10 -37 0 -70 -4 -72 -10
-1 -5 -40 -12 -85 -16 -46 -4 -83 -11 -83 -15 0 -5 -20 -9 -45 -9 -25 0 -45
-4 -45 -10 0 -5 -18 -10 -39 -10 -22 0 -41 -3 -43 -7 -4 -11 -101 -43 -126
-43 -12 0 -24 -4 -27 -10 -3 -5 -17 -10 -30 -10 -13 0 -27 -4 -30 -10 -3 -5
-23 -10 -44 -10 -26 0 -47 -8 -67 -25 -16 -14 -36 -25 -46 -25 -9 0 -18 -5
-20 -11 -2 -5 -23 -12 -48 -13 -24 -2 -46 -9 -48 -15 -2 -6 -11 -11 -19 -11
-9 0 -24 -10 -34 -22 -11 -11 -22 -19 -25 -16 -7 8 36 48 52 48 7 0 14 3 16 8
4 10 67 42 82 42 17 0 66 24 66 32 0 4 20 10 45 14 25 3 48 10 51 15 3 5 18 9
34 9 16 0 32 5 35 10 3 6 15 10 26 10 10 0 19 5 19 10 0 6 9 10 21 10 11 0 30
5 41 11 11 6 39 13 61 16 23 2 48 13 57 23 12 13 41 20 120 29 148 15 189 22
196 32 3 5 25 9 49 9 24 0 45 5 47 11 2 7 51 12 138 14 87 2 136 7 138 14 5
15 19 14 25 -1z m234 6 c-3 -3 -12 -4 -19 -1 -8 3 -5 6 6 6 11 1 17 -2 13 -5z
m-1245 -64 c-20 -19 -32 -25 -35 -17 -2 6 10 25 27 41 40 37 47 15 8 -24z
m2188 30 c3 -4 14 -10 25 -13 13 -3 9 -5 -13 -6 -18 0 -40 3 -50 8 -9 5 -28
14 -42 20 -21 9 -17 10 25 5 28 -3 52 -9 55 -14z m-207 3 c-25 -5 -31 -31 -11
-51 7 -7 36 -12 65 -12 29 0 53 -4 53 -8 0 -9 33 -27 68 -37 16 -5 22 -2 22 9
0 11 9 16 30 16 17 0 30 -4 30 -9 0 -5 -8 -8 -17 -7 -9 0 -22 -8 -27 -19 -16
-29 -101 -23 -127 8 -14 18 -20 20 -30 10 -19 -19 -29 -16 -29 8 0 18 -5 21
-30 17 -29 -4 -30 -4 -30 39 0 41 2 43 28 42 23 -2 24 -2 5 -6z m-259 -42 c4
-5 44 -12 91 -16 47 -4 85 -11 85 -15 0 -5 8 -11 18 -13 9 -3 -34 -5 -97 -4
-77 1 -118 6 -127 14 -7 7 -28 13 -47 13 -22 0 -37 6 -41 15 -4 12 5 15 54 15
32 0 61 -4 64 -9z m549 2 c-7 -2 -21 -2 -30 0 -10 3 -4 5 12 5 17 0 24 -2 18
-5z m-2146 -19 c-3 -3 -12 -4 -19 -1 -8 3 -5 6 6 6 11 1 17 -2 13 -5z m-47
-19 c0 -9 -9 -15 -25 -15 -14 0 -25 -5 -25 -12 0 -6 -3 -8 -7 -5 -8 9 27 46
45 46 6 1 12 -6 12 -14z m2480 5 c0 -5 8 -10 17 -10 9 0 14 -3 10 -6 -9 -9
-57 5 -57 16 0 6 7 10 15 10 8 0 15 -4 15 -10z m120 -36 c0 -2 -19 -4 -42 -4
-26 0 -38 4 -30 8 12 8 72 4 72 -4z m-366 -3 c3 -5 18 -12 32 -15 33 -9 64
-36 40 -36 -8 0 -17 4 -20 9 -3 4 -23 11 -45 14 -22 3 -48 12 -56 21 -15 15
-14 16 14 16 16 0 32 -4 35 -9z m187 -43 c18 -20 49 -24 66 -7 8 8 17 6 33 -9
12 -11 39 -23 59 -27 21 -3 44 -15 51 -26 8 -10 18 -19 23 -19 9 0 37 -25 37
-33 0 -13 -48 9 -67 31 -17 20 -35 27 -85 33 -34 4 -64 12 -66 18 -2 6 -14 11
-27 11 -12 0 -28 7 -36 16 -7 8 -20 13 -30 11 -11 -3 -19 2 -22 14 -4 16 -1
18 21 12 15 -3 34 -14 43 -25z m245 22 c29 0 32 -16 4 -25 -13 -4 -27 1 -42
16 -19 18 -20 21 -5 15 10 -3 30 -6 43 -6z m-1443 -37 c20 -3 37 -9 37 -14 0
-12 97 -11 105 1 8 12 182 13 189 1 10 -15 99 -22 108 -9 13 22 9 27 -24 31
-26 3 -23 4 14 5 26 1 50 -2 53 -8 3 -5 22 -10 41 -10 19 0 34 -4 34 -10 0 -5
24 -10 53 -10 94 0 157 -11 157 -28 0 -8 11 -25 26 -38 14 -13 20 -24 15 -24
-15 0 -14 -63 1 -78 9 -9 9 -12 -3 -12 -19 0 -99 39 -81 40 19 0 16 88 -4 107
-13 13 -20 14 -35 5 -23 -15 -69 -16 -69 -2 0 6 -8 10 -17 10 -10 0 -31 7 -47
15 -38 20 -86 20 -86 0 0 -8 -5 -15 -11 -15 -15 0 -39 -26 -39 -43 0 -9 -6
-17 -12 -20 -10 -3 -10 -9 -2 -23 9 -15 8 -22 -2 -32 -8 -7 -14 -8 -14 -2 0 5
-13 10 -30 10 -16 0 -30 -5 -30 -11 0 -6 -9 -1 -19 12 -12 15 -16 28 -10 34 5
5 9 17 9 27 0 14 8 18 40 18 28 0 40 4 40 14 0 23 -42 25 -290 15 -129 -5
-298 -12 -375 -15 -77 -3 -144 -9 -150 -15 -5 -5 -40 -9 -77 -9 -37 0 -68 -4
-68 -9 0 -4 -46 -11 -102 -15 -56 -4 -109 -11 -119 -17 -10 -5 -36 -9 -58 -9
-23 0 -41 -4 -41 -10 0 -5 -16 -10 -36 -10 -19 0 -42 -7 -50 -15 -9 -8 -26
-15 -39 -15 -13 0 -27 -5 -31 -11 -3 -6 -18 -9 -33 -6 -42 9 -50 -2 -41 -55 6
-46 6 -48 -17 -48 -12 0 -23 5 -23 10 0 6 5 10 10 10 6 0 10 14 10 31 l0 32
-50 -7 c-73 -10 -80 -14 -80 -51 0 -18 -6 -36 -12 -39 -10 -5 -10 -7 0 -12 13
-6 17 -34 5 -34 -5 0 -18 -3 -30 -6 -20 -6 -23 -2 -23 22 0 49 -11 57 -70 49
-60 -8 -115 -29 -127 -47 -4 -7 -21 -21 -38 -30 -18 -10 -31 -26 -33 -41 -2
-14 -13 -29 -28 -36 -14 -6 -30 -24 -35 -41 -6 -16 -19 -32 -30 -35 -10 -4
-19 -11 -19 -16 0 -5 -7 -9 -15 -9 -25 0 -17 24 15 45 17 11 32 27 35 35 3 8
18 24 35 35 35 24 36 27 11 49 -29 26 -79 3 -109 -49 -9 -17 -11 -17 -12 -3 0
9 7 23 15 32 8 8 15 19 15 25 0 6 11 13 25 17 14 3 25 12 25 19 0 7 12 13 26
13 15 0 30 6 35 13 5 9 24 13 53 11 35 -1 46 2 46 13 0 8 4 15 9 15 5 0 12 8
16 19 4 13 19 20 52 25 49 6 105 22 135 37 10 5 25 9 33 9 8 0 15 4 15 10 0 5
18 13 40 16 22 4 43 11 46 15 3 5 16 9 30 9 13 0 24 5 24 10 0 6 20 10 44 10
24 0 46 4 48 10 2 5 40 12 86 16 45 4 82 11 82 15 0 5 25 9 55 9 30 0 55 5 55
10 0 14 27 12 33 -2 3 -9 10 -7 23 8 17 19 34 22 194 28 116 5 177 11 182 19
5 9 16 8 43 -2 49 -17 165 -26 165 -11 0 21 25 40 45 34 11 -4 37 -8 58 -11z
m917 -53 c10 -11 22 -20 29 -20 6 0 11 -7 11 -15 0 -22 -23 -18 -38 5 -7 11
-23 20 -36 20 -14 0 -28 4 -31 10 -3 5 -20 14 -38 20 -27 8 -22 9 27 5 42 -4
64 -11 76 -25z m192 -44 c17 -3 49 -6 72 -7 22 0 34 -3 26 -6 -8 -4 -23 -15
-32 -26 -14 -16 -18 -17 -18 -5 0 17 -48 38 -87 38 -14 0 -31 7 -39 15 -14 13
-13 15 10 15 14 0 27 6 27 13 1 6 4 2 6 -9 3 -15 14 -24 35 -28z m-553 4 c19
0 51 -43 51 -70 0 -6 -27 -10 -67 -9 -38 0 -61 3 -53 6 37 15 56 63 25 63 -8
0 -15 7 -15 15 0 12 4 13 19 5 11 -5 29 -10 40 -10z m-649 -19 c0 -11 5 -23
10 -26 6 -3 10 -13 10 -21 0 -10 -13 -14 -52 -13 -29 1 -44 4 -33 6 24 6 37
23 30 41 -7 18 3 32 21 32 8 0 14 -9 14 -19z m210 4 c7 -8 19 -15 26 -15 8 0
14 -10 14 -25 0 -23 -4 -25 -45 -25 -25 0 -46 3 -46 8 -10 66 -9 72 15 72 13
0 29 -7 36 -15z m1488 0 c9 -8 19 -65 11 -65 -5 0 -9 5 -9 10 0 6 -5 10 -11
10 -7 0 -19 9 -29 20 -9 11 -28 24 -41 30 -19 7 -13 8 26 4 28 -4 51 -8 53 -9z
m-1894 -11 c18 -47 -8 -72 -40 -39 -9 8 -11 15 -5 15 5 0 13 9 16 20 8 24 21
26 29 4z m1593 10 c-3 -3 -12 -4 -19 -1 -8 3 -5 6 6 6 11 1 17 -2 13 -5z m-37
-31 c0 -11 -3 -14 -8 -7 -4 6 -14 14 -22 17 -10 4 -8 6 8 6 15 1 22 -5 22 -16z
m103 5 c12 -7 32 -23 44 -35 12 -13 29 -23 38 -23 8 0 15 -7 15 -15 0 -9 -9
-15 -25 -15 -17 0 -25 5 -25 18 0 20 -33 52 -55 52 -8 0 -15 4 -15 9 0 5 -8
12 -17 14 -17 4 -17 5 0 6 9 0 27 -5 40 -11z m-2759 -23 c-4 -8 -8 -15 -10
-15 -2 0 -4 7 -4 15 0 8 4 15 10 15 5 0 7 -7 4 -15z m950 -1 c12 -32 6 -40
-32 -39 -35 0 -37 2 -34 28 4 22 9 27 32 27 16 0 30 -7 34 -16z m1416 -14 c0
-27 -3 -30 -30 -30 -26 0 -29 3 -27 30 2 26 6 30 30 30 23 0 27 -4 27 -30z
m-2440 0 c0 -5 -12 -10 -27 -10 -22 0 -25 2 -13 10 20 13 40 13 40 0z m830 -2
c0 -20 -32 -48 -57 -48 -19 0 -23 5 -23 30 0 28 2 30 40 30 24 0 40 -5 40 -12z
m437 -4 c-3 -3 -12 -4 -19 -1 -8 3 -5 6 6 6 11 1 17 -2 13 -5z m1853 -4 c0 -5
-2 -10 -4 -10 -3 0 -8 5 -11 10 -3 6 -1 10 4 10 6 0 11 -4 11 -10z m-521 -22
c12 -16 11 -18 -7 -18 -15 0 -19 5 -15 20 3 12 6 19 7 18 1 -2 8 -11 15 -20z
m-2665 -3 c-4 -8 -8 -15 -10 -15 -2 0 -4 7 -4 15 0 8 4 15 10 15 5 0 7 -7 4
-15z m693 3 c9 -7 8 -15 -7 -30 -24 -26 -60 -16 -60 16 0 19 5 24 28 24 15 0
32 -5 39 -10z m1313 -3 c10 -12 9 -15 -8 -15 -11 0 -22 7 -26 15 -3 9 0 15 8
15 7 0 19 -7 26 -15z m824 -53 c5 -9 -7 -12 -42 -12 -35 0 -52 4 -56 15 -3 8
-1 15 4 15 6 0 10 -5 10 -11 0 -6 10 -9 22 -7 16 2 25 13 32 38 l10 35 7 -31
c3 -17 9 -36 13 -42z m-1327 36 c-3 -8 -6 -5 -6 6 -1 11 2 17 5 13 3 -3 4 -12
1 -19z m-987 -28 c0 -29 -4 -40 -15 -40 -8 0 -15 3 -15 7 0 9 23 73 27 73 2 0
3 -18 3 -40z m1085 30 c8 -13 -5 -13 -25 0 -13 8 -13 10 2 10 9 0 20 -4 23
-10z m235 0 c10 -7 -1 -8 -35 -4 -27 4 -52 8 -54 10 -10 9 75 3 89 -6z m-1893
-6 c-3 -3 -12 -4 -19 -1 -8 3 -5 6 6 6 11 1 17 -2 13 -5z m3223 -31 c0 -12 -2
-12 -15 1 -8 8 -15 17 -15 20 0 3 7 3 15 0 8 -4 15 -13 15 -21z m-1240 8 c0
-5 -9 -7 -20 -4 -11 3 -20 7 -20 9 0 2 9 4 20 4 11 0 20 -4 20 -9z m1020 -33
c8 -24 19 -46 25 -50 6 -5 3 -8 -7 -8 -10 0 -18 4 -18 9 0 11 -55 22 -75 15
-40 -16 3 -64 58 -64 29 0 45 -6 59 -22 13 -16 16 -24 7 -27 -6 -2 -16 3 -20
12 -7 11 -19 14 -50 10 -23 -3 -44 -2 -48 3 -13 20 -68 37 -123 40 -48 2 -62
7 -89 33 -17 17 -40 31 -50 31 -11 0 -19 7 -19 15 0 14 3 14 30 0 16 -8 38
-15 49 -15 11 0 26 -6 33 -12 26 -25 57 -38 63 -28 3 6 17 10 31 10 13 0 24 5
24 10 0 6 10 10 23 10 31 0 67 27 67 51 0 33 16 21 30 -23z m124 26 c11 -27 7
-62 -9 -78 -8 -8 -15 -19 -15 -25 0 -6 -7 -11 -15 -11 -11 0 -15 12 -15 45 0
25 5 45 10 45 6 0 10 9 10 20 0 24 25 27 34 4z m-1070 -19 c3 -8 3 -15 0 -15
-3 0 -12 7 -20 15 -13 13 -13 15 -1 15 8 0 17 -7 21 -15z m343 9 c-3 -3 -12
-4 -19 -1 -8 3 -5 6 6 6 11 1 17 -2 13 -5z m123 -9 c0 -8 -4 -15 -10 -15 -5 0
-7 7 -4 15 4 8 8 15 10 15 2 0 4 -7 4 -15z m67 -7 c-3 -8 -6 -5 -6 6 -1 11 2
17 5 13 3 -3 4 -12 1 -19z m-307 -18 c0 -13 -6 -20 -17 -19 -11 0 -13 3 -5 6
6 2 12 11 12 19 0 8 2 14 5 14 3 0 5 -9 5 -20z m913 -47 c-3 -61 -6 -68 -22
-58 -14 8 -14 55 -1 55 6 0 10 11 10 23 0 20 7 37 15 37 1 0 0 -26 -2 -57z
m-776 31 c-3 -3 -12 -4 -19 -1 -8 3 -5 6 6 6 11 1 17 -2 13 -5z m-834 -21
c-13 -2 -33 -2 -45 0 -13 2 -3 4 22 4 25 0 35 -2 23 -4z m87 -8 c0 -8 -4 -15
-9 -15 -5 0 -11 7 -15 15 -3 9 0 15 9 15 8 0 15 -7 15 -15z m150 5 c0 -5 -2
-10 -4 -10 -3 0 -8 5 -11 10 -3 6 -1 10 4 10 6 0 11 -4 11 -10z m80 1 c0 -5 8
-12 18 -14 10 -3 6 -5 -10 -6 -19 -1 -28 4 -28 14 0 8 5 15 10 15 6 0 10 -4
10 -9z m678 -45 l-3 -24 -25 20 c-16 14 -21 22 -12 25 6 3 12 11 12 20 0 12 2
12 16 -1 8 -9 14 -27 12 -40z m802 30 c0 -13 -7 -26 -15 -30 -10 -3 -15 1 -15
12 0 10 -5 23 -12 30 -9 9 -6 12 15 12 22 0 27 -5 27 -24z m-3230 -11 c0 -8 5
-15 10 -15 6 0 10 -7 10 -15 0 -10 -10 -15 -30 -15 -30 0 -37 11 -24 44 8 20
34 21 34 1z m1830 5 c0 -5 -7 -7 -15 -4 -8 4 -15 8 -15 10 0 2 7 4 15 4 8 0
15 -4 15 -10z m207 4 c-3 -3 -12 -4 -19 -1 -8 3 -5 6 6 6 11 1 17 -2 13 -5z
m286 -11 c-11 -10 -22 -25 -26 -33 -3 -8 -6 0 -6 18 -1 28 2 32 26 32 26 0 26
0 6 -17z m-815 -33 c-11 -17 -10 -22 0 -29 10 -6 7 -10 -12 -13 -18 -4 -26 -1
-26 8 0 8 5 14 10 14 6 0 10 9 10 20 0 11 7 20 15 20 13 0 13 -3 3 -20z m669
-2 c-3 -8 -6 -5 -6 6 -1 11 2 17 5 13 3 -3 4 -12 1 -19z m-2560 -20 c-3 -8 -6
-5 -6 6 -1 11 2 17 5 13 3 -3 4 -12 1 -19z m2065 -41 c9 -22 8 -31 -1 -37 -10
-6 -10 -12 -2 -28 16 -30 14 -42 -9 -42 -20 0 -28 24 -11 34 5 4 5 18 -1 34
-7 17 -8 44 -3 68 6 26 10 32 12 19 2 -11 9 -33 15 -48z m78 7 c0 -48 -2 -55
-17 -52 -10 2 -16 11 -14 19 2 8 6 25 8 39 12 69 23 67 23 -6z m70 41 c0 -8
-4 -15 -10 -15 -5 0 -7 7 -4 15 4 8 8 15 10 15 2 0 4 -7 4 -15z m130 -13 c-15
-6 -12 -32 5 -38 15 -6 21 -34 7 -34 -4 0 -14 9 -22 20 -8 11 -25 20 -37 20
-14 0 -23 6 -23 15 0 11 5 12 25 5 22 -8 26 -6 31 16 5 19 9 22 15 12 5 -7 4
-14 -1 -16z m86 13 c14 -13 13 -15 -4 -15 -11 0 -25 7 -32 15 -10 12 -9 15 4
15 10 0 24 -7 32 -15z m-616 -16 c0 -10 -12 -11 -34 -3 -9 3 -14 10 -11 14 6
10 45 1 45 -11z m-1520 -3 c0 -27 -12 -46 -29 -45 -10 0 -11 2 -3 6 6 2 12 16
12 29 0 13 5 24 10 24 6 0 10 -6 10 -14z m2475 4 c3 -5 -1 -10 -9 -10 -9 0
-16 5 -16 10 0 6 4 10 9 10 6 0 13 -4 16 -10z m733 -24 c-8 -20 -13 -22 -33
-12 -23 10 -23 11 -3 28 27 24 50 14 36 -16z m-916 4 c10 0 26 -7 34 -15 14
-13 14 -15 0 -15 -9 0 -16 5 -16 10 0 6 -9 10 -20 10 -14 0 -20 -7 -20 -22 1
-26 22 -58 39 -58 6 0 11 -13 11 -30 0 -20 -5 -30 -15 -30 -25 0 -65 23 -65
37 0 8 -12 13 -35 13 -24 0 -35 5 -35 15 0 8 7 15 15 15 8 0 15 -5 15 -11 0
-6 12 -9 28 -7 49 6 36 78 -15 78 -10 0 -25 5 -33 11 -11 8 -3 9 33 6 31 -3
47 -1 48 7 0 7 2 6 6 -1 2 -7 14 -13 25 -13z m250 -20 c12 0 10 -28 -2 -32 -6
-2 -13 -28 -17 -58 -5 -47 -12 -60 -50 -96 -37 -36 -43 -47 -43 -83 0 -22 4
-41 8 -41 4 0 13 -13 19 -29 7 -21 20 -31 43 -36 l33 -7 -29 -13 c-16 -7 -40
-25 -54 -42 -14 -16 -40 -38 -57 -48 -22 -13 -33 -27 -33 -42 0 -18 -6 -23
-25 -23 -14 0 -25 -4 -25 -8 0 -5 -16 -16 -35 -25 -19 -9 -35 -21 -35 -27 0
-5 -7 -10 -15 -10 -8 0 -15 -4 -15 -10 0 -5 -6 -10 -14 -10 -8 0 -18 -10 -22
-22 -4 -13 -9 -25 -13 -28 -11 -9 -61 -110 -61 -123 0 -7 -9 -19 -20 -27 -11
-8 -20 -19 -20 -26 0 -18 -73 -85 -90 -82 -12 3 -16 25 -18 126 -2 89 0 122 9
122 8 0 10 -19 7 -64 -3 -34 -1 -71 4 -80 9 -17 11 -17 29 0 14 13 19 31 19
71 0 36 4 53 13 53 6 0 19 4 27 10 12 7 9 14 -15 35 l-30 27 31 -7 c22 -4 35
-1 44 10 17 20 -3 45 -36 45 -12 0 -26 4 -29 10 -4 6 5 10 19 10 19 0 26 5 26
20 0 19 -33 33 -100 44 -14 2 5 4 42 5 47 1 71 -3 82 -14 14 -14 96 -22 96 -9
0 17 -53 46 -105 57 -11 3 -1 5 23 6 23 0 42 -3 42 -9 0 -5 11 -10 25 -10 14
0 37 -7 50 -16 31 -20 55 -12 55 19 0 25 -28 37 -86 37 -13 0 -24 5 -24 10 0
6 -20 10 -44 10 -25 0 -48 5 -51 10 -3 6 -17 10 -30 10 -13 0 -27 5 -30 10 -3
6 -23 10 -43 10 -28 0 -33 3 -22 10 24 16 100 12 106 -5 5 -11 22 -15 63 -15
45 0 60 -4 71 -20 8 -11 22 -20 30 -20 25 0 70 24 67 35 -4 12 -42 23 -84 24
-32 1 -33 2 -33 45 0 27 -5 46 -12 49 -7 2 -1 6 15 9 18 3 27 1 27 -7 0 -16
23 -25 61 -25 19 0 29 -5 29 -15 0 -19 -13 -19 -50 0 -36 18 -62 10 -58 -19 2
-17 13 -23 56 -30 28 -5 52 -13 52 -17 0 -12 67 -11 75 1 3 6 -3 10 -14 10
-19 0 -21 6 -21 70 0 54 -3 70 -14 70 -8 0 -18 9 -21 20 -4 13 -15 20 -31 20
-13 0 -24 5 -24 10 0 6 -16 10 -35 10 -38 0 -47 20 -20 46 13 14 15 13 15 -4
0 -22 18 -32 56 -32 13 0 24 -4 24 -10 0 -5 7 -10 15 -10 8 0 15 -4 15 -10 0
-13 60 -13 80 0 9 6 10 10 3 10 -7 0 -24 11 -39 25 -26 24 -26 25 -5 25 19 0
21 5 21 58 0 31 5 64 11 72 7 11 9 -5 7 -57 -3 -74 7 -101 35 -90 9 3 16 28
21 68 3 34 8 65 11 68 3 3 15 0 25 -7 11 -7 24 -12 30 -12 13 0 13 47 0 55 -6
4 -7 11 -3 18 4 7 10 3 16 -11 6 -12 14 -22 19 -22z m808 30 c0 -5 -5 -10 -11
-10 -5 0 -7 5 -4 10 3 6 8 10 11 10 2 0 4 -4 4 -10z m-260 -10 c12 -8 11 -10
-7 -10 -13 0 -23 5 -23 10 0 13 11 13 30 0z m375 0 c3 -5 -3 -10 -14 -10 -12
0 -21 5 -21 10 0 6 6 10 14 10 8 0 18 -4 21 -10z m-3795 -15 c0 -8 -4 -15 -10
-15 -5 0 -7 7 -4 15 4 8 8 15 10 15 2 0 4 -7 4 -15z m3250 5 c0 -5 10 -10 21
-10 12 0 32 -11 45 -25 25 -28 40 -31 47 -12 3 7 20 -4 47 -30 23 -24 46 -43
49 -43 4 0 6 -13 3 -30 -2 -17 0 -30 6 -30 6 0 8 -9 5 -20 -3 -11 0 -27 7 -35
17 -20 70 -20 70 0 0 8 -4 15 -10 15 -5 0 -10 9 -10 20 0 11 7 20 15 20 12 0
15 -14 15 -70 0 -73 -13 -90 -38 -50 -7 11 -19 20 -27 20 -8 0 -15 7 -15 15 0
8 -9 15 -19 15 -22 0 -41 42 -22 48 26 9 8 63 -36 109 -23 24 -57 30 -68 13
-12 -19 -45 -11 -45 11 0 21 -22 49 -38 49 -6 0 -12 7 -16 15 -3 8 -1 15 4 15
6 0 10 -4 10 -10z m-3176 -42 c-3 -4 -13 -8 -22 -7 -11 0 -12 3 -4 6 6 2 12
12 12 21 0 14 2 15 9 2 6 -8 7 -18 5 -22z m2176 17 c0 -8 -4 -15 -10 -15 -5 0
-10 7 -10 15 0 8 5 15 10 15 6 0 10 -7 10 -15z m220 -20 c10 -13 9 -15 -9 -15
-13 0 -29 7 -37 15 -14 13 -13 15 9 15 14 0 30 -7 37 -15z m1140 -23 c0 -21
-2 -24 -10 -12 -13 20 -13 53 0 45 6 -3 10 -18 10 -33z m-1290 24 c0 -3 -4 -8
-10 -11 -5 -3 -10 -1 -10 4 0 6 5 11 10 11 6 0 10 -2 10 -4z m-1293 -83 c-2
-16 -4 -5 -4 22 0 28 2 40 4 28 2 -13 2 -35 0 -50z m243 -27 c0 -64 4 -96 12
-98 9 -3 9 -12 -1 -36 -7 -17 -11 -38 -7 -47 4 -10 -1 -15 -14 -15 -13 0 -20
-7 -20 -19 0 -16 -11 -19 -77 -25 -42 -4 -82 -10 -87 -14 -6 -3 -26 -7 -43 -8
l-33 -1 2 121 c1 67 3 101 5 76 5 -47 17 -70 38 -70 8 0 15 26 19 80 7 70 10
80 27 80 10 0 19 7 19 15 0 8 5 15 10 15 6 0 10 9 10 20 0 18 7 20 70 20 l70
0 0 -94z m1104 79 c3 -8 1 -15 -4 -15 -6 0 -10 7 -10 15 0 8 2 15 4 15 2 0 6
-7 10 -15z m-2088 -20 c-8 -8 -19 -15 -25 -15 -6 0 -11 7 -11 15 0 9 10 15 26
15 23 0 24 -2 10 -15z m1977 8 c-7 -2 -19 -2 -25 0 -7 3 -2 5 12 5 14 0 19 -2
13 -5z m1297 -13 c0 -11 -6 -20 -13 -20 -19 0 -27 10 -20 26 8 21 33 17 33 -6z
m-3374 -26 c-4 -15 -14 -33 -21 -41 -13 -13 -15 -12 -15 1 0 9 4 16 10 16 5 0
12 11 16 25 3 14 8 25 11 25 3 0 2 -12 -1 -26z m1994 22 c0 -11 -19 -15 -25
-6 -3 5 1 10 9 10 9 0 16 -2 16 -4z m1565 -6 c-28 -12 -37 -12 -30 0 3 6 16
10 28 9 21 0 21 -1 2 -9z m-2805 -40 c0 -29 -2 -30 -45 -30 -33 0 -45 4 -45
15 0 8 7 15 15 15 8 0 15 4 15 9 0 5 12 12 28 14 15 2 28 5 30 6 1 0 2 -12 2
-29z m1158 -18 c2 -7 -3 -12 -12 -12 -9 0 -16 7 -16 16 0 17 22 14 28 -4z m78
9 c-11 -17 6 -41 28 -42 20 -1 20 -2 1 -6 -11 -3 -22 -9 -25 -13 -3 -4 -11 -2
-18 6 -8 8 -9 14 -2 14 6 0 8 10 4 25 -4 16 -2 25 6 25 6 0 9 -4 6 -9z m144
-1 c0 -5 13 -10 29 -10 17 0 33 -4 36 -10 10 -16 -72 -12 -89 5 -18 18 -43 20
-48 3 -3 -7 -7 -6 -11 5 -5 14 0 17 38 17 25 0 45 -4 45 -10z m1049 -26 c1 -1
1 -7 0 -12 -2 -5 -22 0 -44 10 l-40 18 40 -6 c22 -4 42 -8 44 -10z m-919 -9
c0 -8 -4 -15 -10 -15 -5 0 -10 7 -10 15 0 8 5 15 10 15 6 0 10 -7 10 -15z
m-1938 -17 c9 -26 -7 -53 -32 -55 -69 -5 -110 -26 -110 -58 0 -19 -23 -45 -39
-45 -6 0 -11 -4 -11 -10 0 -5 -7 -10 -15 -10 -20 0 -19 19 1 27 12 4 14 14 9
39 -6 33 -5 34 29 34 26 0 36 5 41 20 5 16 15 20 51 20 40 0 44 2 44 25 0 26
24 35 32 13z m1582 5 c-5 -5 -12 -12 -16 -18 -4 -6 -8 -2 -8 8 0 9 7 17 17 17
9 0 12 -3 7 -7z m1180 -28 c4 -10 -1 -15 -16 -15 -17 0 -18 2 -8 15 7 8 14 15
15 15 2 0 5 -7 9 -15z m348 -16 c5 -3 2 -12 -7 -19 -13 -11 -15 -8 -14 21 0
19 3 27 6 19 3 -8 10 -18 15 -21z m-722 -1 c-1 -16 -50 -53 -50 -38 0 5 -9 10
-19 10 -25 0 -38 20 -20 31 22 14 89 11 89 -3z m-280 -13 c0 -9 -9 -15 -25
-15 -16 0 -25 6 -25 15 0 9 9 15 25 15 16 0 25 -6 25 -15z m703 8 c-7 -2 -19
-2 -25 0 -7 3 -2 5 12 5 14 0 19 -2 13 -5z m-863 -23 c0 -6 -6 -19 -12 -30
-10 -16 -10 -24 0 -40 14 -23 0 -27 -18 -5 -10 12 -10 21 -1 41 6 14 9 30 6
35 -4 5 1 9 9 9 9 0 16 -5 16 -10z m820 -25 c0 -8 6 -15 13 -15 8 0 7 -3 -3
-10 -17 -11 -15 -71 4 -82 6 -4 -3 -8 -20 -8 -32 0 -32 0 -31 53 0 50 10 77
28 77 5 0 9 -7 9 -15z m-890 -20 c0 -13 -4 -14 -20 -5 -11 6 -20 13 -20 15 0
3 9 5 20 5 11 0 20 -7 20 -15z m1067 9 c-3 -3 -12 -4 -19 -1 -8 3 -5 6 6 6 11
1 17 -2 13 -5z m-1377 -97 c0 -12 -9 -29 -20 -37 -11 -8 -20 -20 -20 -27 0 -7
-6 -13 -14 -13 -8 0 -17 -6 -19 -12 -3 -7 -6 2 -6 20 -1 17 4 32 10 32 16 0
39 26 39 44 0 9 7 16 15 16 9 0 15 -9 15 -23z m160 14 c0 -12 -39 -25 -47 -17
-4 3 1 6 10 6 10 0 17 5 17 10 0 6 5 10 10 10 6 0 10 -4 10 -9z m-80 -62 c0
-10 -4 -19 -10 -19 -5 0 -10 12 -10 26 0 14 4 23 10 19 6 -3 10 -15 10 -26z
m147 5 c-3 -3 -12 -4 -19 -1 -8 3 -5 6 6 6 11 1 17 -2 13 -5z m-367 -19 c0 -8
-7 -15 -15 -15 -8 0 -15 7 -15 15 0 8 7 15 15 15 8 0 15 -7 15 -15z m284 -40
c-4 -8 -8 -15 -10 -15 -2 0 -4 7 -4 15 0 8 4 15 10 15 5 0 7 -7 4 -15z m594
-22 c-10 -2 -26 -2 -35 0 -10 3 -2 5 17 5 19 0 27 -2 18 -5z m-758 -28 c0 -8
-7 -15 -15 -15 -8 0 -15 -7 -15 -15 0 -8 -7 -15 -15 -15 -18 0 -20 31 -3 48
17 17 48 15 48 -3z m-107 -12 c-18 -7 -16 -43 2 -43 8 0 15 -7 15 -15 0 -8 -5
-15 -11 -15 -6 0 -18 -7 -26 -16 -14 -13 -14 -17 -2 -25 11 -7 11 -9 -3 -9
-13 0 -18 8 -18 30 0 17 5 30 10 30 6 0 10 9 10 20 0 11 -4 20 -10 20 -5 0
-10 7 -10 15 0 10 9 15 28 14 15 0 21 -3 15 -6z m367 -3 c12 -8 9 -10 -12 -10
-16 0 -28 5 -28 10 0 13 20 13 40 0z m512 -34 c5 -8 13 -8 28 2 24 14 60 16
60 2 0 -5 10 -10 23 -11 12 0 32 -13 45 -30 24 -30 15 -41 -12 -14 -22 22 -66
20 -66 -4 0 -11 -3 -26 -6 -35 -4 -10 2 -17 20 -22 28 -7 26 -24 -4 -24 -10 0
-21 -6 -23 -12 -3 -7 -6 -3 -6 10 -1 21 -22 52 -35 52 -3 0 -6 -9 -6 -19 0
-12 -11 -23 -30 -30 -30 -10 -42 -40 -17 -42 6 -1 -8 -7 -32 -15 -57 -18 -91
-10 -91 22 0 13 5 24 10 24 6 0 10 9 10 20 0 15 -7 20 -25 20 -20 0 -25 -6
-31 -35 -3 -19 -10 -35 -15 -35 -5 0 -9 -7 -9 -15 0 -8 -4 -15 -8 -15 -5 0 -7
14 -4 30 2 17 8 30 12 30 5 0 12 10 16 22 7 23 28 48 39 48 4 0 13 6 21 14 16
17 19 66 4 66 -5 0 -10 -4 -10 -10 0 -5 -7 -10 -16 -10 -13 0 -14 2 -1 14 25
26 143 27 159 2z m-745 -46 c-1 -50 -5 -60 -19 -60 -10 0 -18 5 -18 10 0 6
-11 10 -25 10 -36 0 -31 24 10 46 19 10 38 27 41 36 9 31 12 20 11 -42z m138
20 c3 -5 1 -10 -4 -10 -6 0 -11 5 -11 10 0 6 2 10 4 10 3 0 8 -4 11 -10z m80
-10 c3 -5 -1 -10 -9 -10 -9 0 -16 5 -16 10 0 6 4 10 9 10 6 0 13 -4 16 -10z
m345 5 c0 -2 -10 -10 -22 -16 -21 -11 -22 -11 -9 4 13 16 31 23 31 12z m-70
-60 c0 -8 -7 -15 -15 -15 -9 0 -15 -9 -15 -25 0 -20 -5 -25 -27 -25 l-26 0 21
19 c12 10 22 23 22 28 0 11 21 33 32 33 4 0 8 -7 8 -15z m-623 -37 c-3 -8 -6
-5 -6 6 -1 11 2 17 5 13 3 -3 4 -12 1 -19z m190 -15 c-3 -10 -5 -4 -5 12 0 17
2 24 5 18 2 -7 2 -21 0 -30z m-179 -41 l27 -9 -33 -5 c-20 -3 -37 0 -43 9 -8
9 -8 13 0 13 6 0 12 8 12 18 1 15 2 15 6 0 2 -9 16 -21 31 -26z m62 23 c0 -8
-7 -15 -15 -15 -16 0 -20 12 -8 23 11 12 23 8 23 -8z m58 -25 c-9 -13 -16 -16
-23 -9 -7 7 -5 13 5 19 24 15 31 11 18 -10z m452 -10 c12 -8 9 -10 -12 -10
-16 0 -28 5 -28 10 0 13 20 13 40 0z m-585 -49 c17 -7 16 -9 -9 -15 -31 -8
-42 -3 -31 13 7 12 12 13 40 2z m498 -68 c-7 -2 -19 -2 -25 0 -7 3 -2 5 12 5
14 0 19 -2 13 -5z m-513 -17 c0 -2 -7 -6 -15 -10 -8 -3 -15 -1 -15 4 0 6 7 10
15 10 8 0 15 -2 15 -4z"/>
<path d="M2248 2556 c-10 -7 -18 -21 -18 -30 0 -13 12 -16 70 -16 l70 0 0 30
c0 26 -3 30 -29 30 -16 0 -32 -6 -34 -12 -4 -10 -6 -10 -6 0 -1 16 -31 15 -53
-2z"/>
<path d="M2184 2435 c-10 -25 6 -35 57 -35 46 0 49 2 49 25 0 23 -3 25 -50 25
-35 0 -52 -4 -56 -15z"/>
<path d="M2340 2400 c0 -5 -7 -10 -15 -10 -18 0 -19 -12 -3 -28 15 -15 104
-16 113 -2 3 6 3 19 0 30 -5 16 -15 20 -51 20 -24 0 -44 -4 -44 -10z"/>
<path d="M1893 2243 c-7 -2 -13 -16 -13 -29 0 -19 5 -24 24 -24 13 0 30 7 37
16 11 14 10 18 -6 30 -20 15 -23 15 -42 7z"/>
<path d="M1713 2205 c-26 -28 -15 -45 27 -45 38 0 40 2 40 30 0 26 -4 30 -27
30 -16 -1 -34 -7 -40 -15z"/>
<path d="M1560 2191 c0 -5 -12 -12 -26 -15 -20 -5 -25 -12 -22 -34 4 -39 28
-38 71 3 45 42 47 55 7 55 -16 0 -30 -4 -30 -9z"/>
<path d="M1823 2097 c-24 -24 -42 -37 -53 -37 -7 0 -27 -16 -46 -35 -18 -19
-43 -35 -54 -35 -15 0 -20 -7 -20 -25 0 -27 31 -48 38 -27 2 7 12 12 23 12 21
0 69 42 69 60 0 5 9 10 20 10 11 0 20 5 20 10 0 6 8 10 18 10 25 0 56 35 49
55 -7 18 -47 19 -64 2z"/>
<path d="M2026 1904 c-6 -17 18 -43 40 -44 18 0 35 26 28 44 -8 21 -60 21 -68
0z"/>
<path d="M2108 1633 c-11 -3 -18 -14 -18 -29 0 -23 3 -24 64 -24 80 0 96 6 96
35 0 21 -4 23 -62 23 -35 0 -71 -3 -80 -5z"/>
<path d="M3240 525 c0 -41 21 -55 46 -31 18 19 12 46 -11 46 -8 0 -15 5 -15
10 0 6 -4 10 -10 10 -5 0 -10 -16 -10 -35z"/>
<path d="M1986 4575 c-8 -22 19 -47 46 -43 17 2 23 10 23 28 0 21 -5 26 -31
28 -22 2 -33 -2 -38 -13z"/>
<path d="M4123 4495 c-25 -27 -12 -34 72 -37 47 -2 85 -2 85 -1 0 1 -12 14
-27 28 -22 19 -38 25 -73 25 -26 -1 -50 -7 -57 -15z"/>
<path d="M4071 4404 c-23 -27 4 -34 127 -34 l112 0 0 25 c0 24 -2 25 -73 25
-40 0 -78 -5 -84 -11 -8 -8 -13 -8 -17 0 -10 16 -49 13 -65 -5z"/>
<path d="M4220 4302 c0 -31 70 -44 96 -18 22 23 17 26 -41 26 -30 0 -55 -4
-55 -8z"/>
<path d="M4148 4223 c-22 -6 -23 -29 -2 -37 9 -3 60 -6 115 -6 90 0 99 2 99
19 0 10 -7 22 -16 25 -18 7 -170 6 -196 -1z"/>
<path d="M4270 4114 c0 -19 34 -34 79 -34 44 0 51 3 51 20 0 18 -7 20 -65 20
-36 0 -65 -3 -65 -6z"/>
<path d="M4430 4060 c0 -6 -28 -10 -65 -10 -37 0 -65 -4 -65 -10 0 -5 7 -10
15 -10 8 0 15 -4 15 -10 0 -17 139 -12 156 5 14 13 14 17 0 30 -16 17 -56 20
-56 5z"/>
<path d="M3360 3992 c0 -20 28 -32 77 -32 46 0 53 3 53 20 0 18 -7 20 -65 20
-36 0 -65 -4 -65 -8z"/>
<path d="M4480 3960 c0 -18 7 -20 55 -20 48 0 55 2 55 20 0 18 -7 20 -55 20
-48 0 -55 -2 -55 -20z"/>
<path d="M3260 3910 c0 -16 7 -20 31 -20 37 0 68 24 43 34 -9 3 -29 6 -45 6
-22 0 -29 -5 -29 -20z"/>
<path d="M4600 3900 c0 -5 -7 -10 -15 -10 -8 0 -15 -4 -15 -10 0 -5 9 -10 20
-10 11 0 30 -6 41 -12 17 -10 23 -10 26 0 3 6 13 12 24 12 23 0 24 6 5 26 -16
16 -86 19 -86 4z"/>
<path d="M3540 3870 c0 -6 -30 -10 -71 -10 -62 0 -70 -2 -67 -17 3 -15 17 -18
101 -21 84 -2 97 -1 97 13 0 9 -6 23 -14 31 -17 16 -46 19 -46 4z"/>
<path d="M4690 3796 c0 -7 13 -19 30 -26 24 -10 32 -10 45 3 26 26 17 37 -30
37 -32 0 -45 -4 -45 -14z"/>
<path d="M3520 3740 c0 -5 8 -10 17 -10 9 0 31 -5 49 -12 25 -9 39 -8 63 2 51
21 36 30 -49 30 -47 0 -80 -4 -80 -10z"/>
<path d="M810 3710 c0 -5 5 -10 10 -10 6 0 10 -9 10 -20 0 -16 7 -20 30 -20
33 0 40 21 16 46 -17 16 -66 19 -66 4z"/>
<path d="M3625 3654 c-30 -23 -3 -35 75 -32 59 3 65 5 68 26 3 21 0 22 -60 22
-40 -1 -70 -6 -83 -16z"/>
<path d="M982 3614 c-12 -13 -10 -18 9 -35 29 -25 59 -25 59 1 0 11 -4 20 -10
20 -5 0 -10 7 -10 15 0 19 -31 19 -48 -1z"/>
<path d="M4017 3473 c-4 -3 -7 -15 -7 -25 0 -15 8 -18 45 -18 37 0 45 3 45 19
0 13 -10 20 -31 25 -39 8 -44 8 -52 -1z"/>
<path d="M513 3333 c-18 -7 -16 -40 3 -47 30 -12 44 -6 44 18 0 18 -21 41 -33
35 -1 0 -8 -3 -14 -6z"/>
<path d="M4360 3300 c0 -17 7 -20 41 -20 45 0 83 16 74 31 -4 5 -31 9 -61 9
-47 0 -54 -2 -54 -20z"/>
<path d="M4555 3240 c-3 -5 -15 -10 -26 -10 -10 0 -19 -4 -19 -10 0 -6 35 -10
85 -10 50 0 85 4 85 10 0 6 -9 10 -20 10 -11 0 -20 5 -20 10 0 6 -18 10 -39
10 -22 0 -43 -4 -46 -10z"/>
<path d="M3827 3123 c-4 -3 -7 -15 -7 -25 0 -14 8 -18 33 -18 17 0 39 5 47 10
10 6 11 10 3 10 -7 0 -13 7 -13 15 0 15 -50 22 -63 8z"/>
<path d="M275 2790 c-7 -12 47 -70 67 -70 8 0 19 -5 25 -11 15 -15 23 34 9 53
-24 32 -87 50 -101 28z"/>
<path d="M4395 2650 c-9 -14 20 -40 45 -40 25 0 38 28 19 41 -19 12 -56 11
-64 -1z"/>
<path d="M4524 2514 c3 -9 6 -18 6 -20 0 -10 77 -2 93 10 28 21 20 26 -44 26
-52 0 -60 -2 -55 -16z"/>
<path d="M4600 2390 c0 -19 7 -20 100 -20 93 0 100 1 100 20 0 19 -7 20 -100
20 -93 0 -100 -1 -100 -20z"/>
<path d="M4683 2255 c-20 -22 -16 -25 38 -25 45 0 79 15 79 34 0 13 -105 5
-117 -9z"/>
<path d="M4806 2095 c-9 -25 13 -32 122 -37 91 -5 112 -3 112 8 0 8 6 14 13
14 8 1 7 4 -3 9 -25 14 -239 19 -244 6z"/>
<path d="M324 1886 c-7 -19 3 -36 22 -36 8 0 14 -4 14 -10 0 -5 9 -10 20 -10
23 0 28 31 8 48 -26 20 -58 24 -64 8z"/>
<path d="M4950 1731 c0 -28 17 -35 29 -12 15 27 14 31 -9 31 -13 0 -20 -7 -20
-19z"/>
<path d="M1190 1023 c-39 -12 -60 -28 -60 -44 0 -23 14 -27 66 -15 48 12 64
34 38 53 -19 14 -21 14 -44 6z"/>
<path d="M3620 1025 c0 -19 27 -55 42 -55 13 0 18 8 18 30 0 27 -3 30 -30 30
-16 0 -30 -2 -30 -5z"/>
<path d="M3703 1003 c-34 -13 -1 -63 41 -63 32 0 35 25 4 51 -22 20 -25 21
-45 12z"/>
<path d="M2260 940 c0 -17 7 -20 50 -20 28 0 50 3 50 6 0 16 -33 34 -64 34
-29 0 -36 -4 -36 -20z"/>
<path d="M2033 944 c-7 -3 -13 -15 -13 -25 0 -17 6 -20 38 -17 29 2 37 7 37
23 0 20 -34 30 -62 19z"/>
<path d="M3565 937 c-21 -16 -13 -37 14 -37 10 0 24 -7 31 -15 22 -26 40 -18
40 19 0 26 -5 35 -22 40 -33 9 -42 7 -63 -7z"/>
<path d="M4014 516 c-3 -13 -4 -34 -2 -47 l3 -22 29 24 c22 19 27 30 22 47
-10 30 -44 29 -52 -2z"/>
<path d="M3188 83 c6 -2 18 -2 25 0 6 3 1 5 -13 5 -14 0 -19 -2 -12 -5z"/>
<path d="M2070 50 c0 -5 10 -10 23 -10 18 0 19 2 7 10 -19 13 -30 13 -30 0z"/>
</g>
</svg>
